<svg width="24" height="24" viewBox="0 0 24 24" fill="none" xmlns="http://www.w3.org/2000/svg">
<path d="M19.75 2.5H4.75C4.48478 2.5 4.23043 2.60536 4.04289 2.79289C3.85536 2.98043 3.75 3.23478 3.75 3.5L5.608 17.896C5.65144 18.2336 5.78032 18.5545 5.98244 18.8284C6.18455 19.1022 6.45322 19.32 6.763 19.461L10.76 21.277C11.0604 21.4128 11.3847 21.4878 11.7142 21.4978C12.0437 21.5077 12.3719 21.4524 12.68 21.335L17.637 19.428C17.9735 19.2987 18.2689 19.0808 18.4917 18.7974C18.7146 18.5139 18.8567 18.1756 18.903 17.818L20.75 3.5C20.75 3.23478 20.6446 2.98043 20.4571 2.79289C20.2696 2.60536 20.0152 2.5 19.75 2.5Z" stroke="black" stroke-width="1.5" stroke-linecap="round" stroke-linejoin="round"/>
<path d="M7.5 6.5H16.5L8 11H16L15.5 16L12 17L8.5 16L8.3 14" stroke="black" stroke-width="1.5" stroke-linecap="round" stroke-linejoin="round"/>
</svg>
