<svg width="24" height="24" viewBox="0 0 24 24" fill="none" xmlns="http://www.w3.org/2000/svg">
<path d="M16.7706 3H8.23155C6.06855 3 4.98655 3 4.39155 3.709C3.79655 4.418 3.97055 5.503 4.31455 7.674L5.68955 16.335C5.98655 18.205 6.41655 18.766 8.18255 19.456L11.0766 20.587C11.7806 20.862 12.1326 21 12.5006 21C12.8686 21 13.2206 20.862 13.9246 20.587L16.8186 19.457C18.5846 18.767 19.0146 18.206 19.3116 16.335L20.6866 7.674C21.0306 5.504 21.2036 4.418 20.6086 3.709C20.0166 3 18.9346 3 16.7706 3Z" stroke="black" stroke-width="1.5" stroke-linecap="round" stroke-linejoin="round"/>
<path d="M15.5002 8H10.5272C9.61924 8 9.43624 8.189 9.51724 9.093L9.69824 11.1C9.76824 11.862 9.94224 12.014 10.7082 12.014H13.8632C14.7882 12.014 14.9722 12.208 14.8712 13.126L14.7012 14.662C14.6332 15.28 14.6142 15.304 14.0202 15.504L12.7852 15.919C12.4622 16.027 12.4572 16.027 12.1342 15.919L10.7602 15.457C10.3902 15.333 10.2672 15.182 10.2002 14.812" stroke="black" stroke-width="1.5" stroke-linecap="round" stroke-linejoin="round"/>
</svg>
