<svg width="24" height="24" viewBox="0 0 24 24" fill="none" xmlns="http://www.w3.org/2000/svg">
<path d="M2.5 12C2.5 7.522 2.5 5.282 3.891 3.891C5.282 2.5 7.521 2.5 12 2.5C16.478 2.5 18.718 2.5 20.109 3.891C21.5 5.282 21.5 7.521 21.5 12C21.5 16.478 21.5 18.718 20.109 20.109C18.718 21.5 16.479 21.5 12 21.5C7.522 21.5 5.282 21.5 3.891 20.109C2.5 18.718 2.5 16.479 2.5 12Z" stroke="black" stroke-width="1.5"/>
<path d="M17.5 7.5H16.854C16.1406 7.49989 15.4402 7.69056 14.8254 8.05224C14.2105 8.41392 13.7035 8.93345 13.357 9.557L10.643 14.443C10.2965 15.0665 9.78952 15.5861 9.17465 15.9478C8.55977 16.3094 7.85936 16.5001 7.146 16.5H6.5" stroke="black" stroke-width="1.5" stroke-linecap="round"/>
</svg>
