<svg width="24" height="24" viewBox="0 0 24 24" fill="none" xmlns="http://www.w3.org/2000/svg">
<path fill-rule="evenodd" clip-rule="evenodd" d="M9.092 15.5002H7.75V8.18525C8.234 8.09725 8.905 8.03125 9.818 8.03125C10.808 8.03125 11.534 8.24025 12.008 8.63625C12.448 8.99925 12.733 9.58225 12.733 10.2752C12.733 10.9792 12.513 11.5623 12.095 11.9583C11.556 12.4973 10.709 12.7502 9.752 12.7502C9.499 12.7502 9.268 12.7393 9.092 12.7063V15.5002ZM9.873 9.06525C9.499 9.06525 9.235 9.09825 9.093 9.13125V11.6392C9.257 11.6832 9.477 11.6943 9.753 11.6943C10.764 11.6943 11.38 11.1992 11.38 10.3302C11.38 9.50525 10.808 9.06525 9.873 9.06525Z" fill="black"/>
<path d="M14.4639 15.6215C13.8139 15.6215 13.2319 15.4565 12.8359 15.2365L13.0999 14.2575C13.4079 14.4445 13.9899 14.6425 14.4749 14.6425C15.0689 14.6425 15.3329 14.4005 15.3329 14.0485C15.3329 13.6855 15.1129 13.4985 14.4529 13.2675C13.4079 12.9045 12.9679 12.3325 12.9789 11.7055C12.9789 10.7595 13.7589 10.0225 15.0029 10.0225C15.5969 10.0225 16.1129 10.1765 16.4219 10.3415L16.1579 11.2985C15.8116 11.1036 15.4223 10.9977 15.0249 10.9905C14.5409 10.9905 14.2769 11.2215 14.2769 11.5515C14.2769 11.8925 14.5299 12.0575 15.2119 12.2995C16.1799 12.6515 16.6309 13.1465 16.6419 13.9385C16.6419 14.9065 15.8819 15.6215 14.4639 15.6215Z" fill="black"/>
<path fill-rule="evenodd" clip-rule="evenodd" d="M17.2541 2.83267C13.7595 2.4451 10.2327 2.4451 6.73811 2.83267C4.72611 3.05767 3.10111 4.64267 2.86511 6.66467C2.45121 10.2093 2.45121 13.79 2.86511 17.3347C3.10111 19.3567 4.72511 20.9417 6.73811 21.1667C10.2328 21.5534 13.7594 21.5534 17.2541 21.1667C19.2661 20.9417 20.8911 19.3567 21.1271 17.3347C21.541 13.79 21.541 10.2093 21.1271 6.66467C20.8911 4.64267 19.2671 3.05767 17.2541 2.83267ZM6.90411 4.32267C10.2884 3.94738 13.7038 3.94738 17.0881 4.32267C18.4181 4.47267 19.4831 5.52167 19.6381 6.83967C20.0393 10.268 20.0393 13.7314 19.6381 17.1597C19.5579 17.8047 19.2626 18.4039 18.8 18.8604C18.3373 19.3169 17.7342 19.6042 17.0881 19.6757C13.7038 20.051 10.2884 20.051 6.90411 19.6757C6.25805 19.6042 5.65496 19.3169 5.19226 18.8604C4.72956 18.4039 4.43428 17.8047 4.35411 17.1597C3.95296 13.7314 3.95296 10.268 4.35411 6.83967C4.43428 6.19463 4.72956 5.59545 5.19226 5.13893C5.65496 4.6824 6.25805 4.39418 6.90411 4.32267Z" fill="black"/>
</svg>
